<svg width="46" height="38" xmlns="http://www.w3.org/2000/svg"><g fill="none" fill-rule="evenodd"><path d="M21.997 32a13.246 13.246 0 01-9.473-3.996l-.004-.005h3.08l.01.007A11.26 11.26 0 0021.998 30a11.27 11.27 0 006.391-1.994l.008-.007h3.082A13.252 13.252 0 0121.997 32zm.006-26a13.245 13.245 0 019.477 4h-3.082l-.004-.003A11.266 11.266 0 0022 8l-.29.005A11.261 11.261 0 0015.604 10l-3.08-.001.245-.246A13.256 13.256 0 0122.003 6z" fill="#3D61CC" fill-rule="nonzero"/><path d="M37.445 28l-.09 2.497a.592.592 0 01-.292.485l-.091.044-.07.023-4.17 1.081-2.01 3.729a.61.61 0 01-.48.314l-.101.002-.072-.01-4.24-.791-3.47 2.509a.62.62 0 01-.566.083l-.093-.041-.066-.042-3.468-2.508-4.24.791a.618.618 0 01-.548-.17l-.065-.076-.037-.06-2.009-3.727-4.172-1.082a.602.602 0 01-.42-.386l-.025-.097-.007-.07L6.553 28H8.28l.06 1.62 3.854 1a.587.587 0 01.332.227l.036.056 1.857 3.442 3.917-.73a.6.6 0 01.401.065l.058.037L22 36.032l3.205-2.315a.598.598 0 01.39-.113l.07.009 3.918.73 1.856-3.441a.582.582 0 01.302-.266l.066-.021 3.855-1L35.72 28h1.726zM22.207.034l.093.041.066.042 3.468 2.508 4.24-.791a.618.618 0 01.548.17l.065.076.037.06 2.01 3.727 4.171 1.082c.2.051.356.198.42.386l.025.097.007.07.09 2.498H35.72l-.059-1.627-3.855-.999a.587.587 0 01-.332-.227l-.036-.056-1.856-3.442-3.918.73a.6.6 0 01-.401-.064l-.058-.038L22 1.963 18.796 4.28a.598.598 0 01-.391.114l-.07-.01-3.917-.73-1.856 3.442a.582.582 0 01-.302.265l-.067.022-3.854.999L8.279 10H6.553l.09-2.495a.592.592 0 01.293-.486l.09-.044.07-.022 4.172-1.083 2.009-3.727a.61.61 0 01.479-.315l.102-.001.072.01 4.24.79 3.47-2.51a.62.62 0 01.567-.083z" fill="#394144"/><path fill="#374144" fill-rule="nonzero" d="M41 11v1l-19 .828L3 12v-1h37.036zm0 15v1H3v-1l19.5-1z"/><path d="M1.668 19.528l.104.992h.032l.112-1.008.976-3.112h.72l.96 3.128.112.992h.032l.12-1.008.68-3.112h1.112l-1.544 5.64h-.736l-1-3.112-.136-.856h-.04l-.136.864-.992 3.104h-.776L-.268 16.4H.924zm8.848 1.232h-1.72L8.372 22H7.276l2.016-5.64h.808L12.116 22h-1.152l-.448-1.24zm-1.44-.88h1.2l-.416-1.248-.168-.88h-.04l-.168.888-.408 1.24zm4.52-3.424a9.832 9.832 0 01.82-.104 11.682 11.682 0 01.78-.032c.261 0 .519.024.772.072.253.048.48.13.68.248.2.117.36.279.48.484.12.205.18.463.18.772 0 .459-.107.832-.32 1.12a1.649 1.649 0 01-.856.6l.392.248L17.804 22H16.54l-1.272-2.192-.576-.104V22h-1.096v-5.544zm1.68.84a7.25 7.25 0 00-.332.008c-.11.005-.193.016-.252.032v1.624h.464c.304 0 .547-.07.728-.208.181-.139.272-.368.272-.688 0-.24-.075-.428-.224-.564-.15-.136-.368-.204-.656-.204zm4.136-.84a9.832 9.832 0 01.82-.104 11.682 11.682 0 01.78-.032c.261 0 .519.024.772.072.253.048.48.13.68.248.2.117.36.279.48.484.12.205.18.463.18.772 0 .459-.107.832-.32 1.12a1.649 1.649 0 01-.856.6l.392.248L23.62 22h-1.264l-1.272-2.192-.576-.104V22h-1.096v-5.544zm1.68.84a7.25 7.25 0 00-.332.008c-.11.005-.193.016-.252.032v1.624h.464c.304 0 .547-.07.728-.208.181-.139.272-.368.272-.688 0-.24-.075-.428-.224-.564-.15-.136-.368-.204-.656-.204zm6.6 3.464h-1.72L25.548 22h-1.096l2.016-5.64h.808L29.292 22H28.14l-.448-1.24zm-1.44-.88h1.2l-.416-1.248-.168-.88h-.04l-.168.888-.408 1.24zm5.912-.8l-.44-.88h-.04l.128.88V22h-1.04v-5.64h.8l2.12 2.984.424.856h.04l-.128-.856V16.4h1.04v5.64h-.8zm8.84-1.704h-1.632V22h-1.096v-4.624h-1.64V16.4h4.368zm2.352 2.544l-1.84-3.52h1.304l1.024 2.104.112.592h.04l.12-.608.992-2.088h1.176l-1.832 3.512V22h-1.096z" fill="#394144" fill-rule="nonzero"/></g></svg>